# xmcd
#
# Track frame offsets: 
#        150
#        8157
#        30699
#        49396
#        67549
#        84295
#        107600
#
# Disc length: 2054 seconds
#
# Revision: 0
# Processed by: cddbd v1.5.2PL0 Copyright (c) Steve Scherf et al.
# Submitted via: ExactAudioCopy v0.95b4
#
DISCID=47080407
DTITLE=Starlite, Tammy Faye And The Angels Of Mercy - On My Knees
DYEAR=2000
DGENRE=Country
TTITLE0=Intro - KKOK
TTITLE1=Did I Shave...
TTITLE2=Moonshiner's Child
TTITLE3=God's A Hard Habit To Break
TTITLE4=If You're Comin' Down, Sweet Jesus...
TTITLE5=God Has Lodged A Tenant In My Uterus
TTITLE6=Outro (Spoken Words)
EXTD=
EXTT0=
EXTT1=
EXTT2=
EXTT3=
EXTT4=
EXTT5=
EXTT6=
PLAYORDER=
